<?xml version="1.0" encoding="UTF-8"?><svg id="Layer_1" xmlns="http://www.w3.org/2000/svg" viewBox="0 0 1000 1000"><defs><style>.cls-1{fill:#fff;stroke:gray;stroke-miterlimit:10;stroke-width:.5px;}</style></defs><path class="cls-1" d="m495.65,682.24c-99.75-.1-180.55-81.28-180.53-181.4.02-100.26,82.67-182.27,183.06-181.64,99.12.62,180.74,82.94,180.68,182.22-.06,100.53-81.51,180.92-183.21,180.82Z"/><path class="cls-1" d="m706.69,310.58c-12.76.07-19.53-5.14-24.52-14-5.72-10.14-4.48-20.26,2.78-27.71,20.83-21.37,42.11-42.42,64.5-62.13,10.62-9.34,24.21-7.58,34.28,2.56,10.16,10.24,11.44,23.96,1.7,34.15-21.04,22.03-43.81,42.42-66.01,63.33-4.14,3.9-9.73,3.85-12.74,3.79Z"/><path class="cls-1" d="m224.51,798.14c-13.68.52-21.51-4.34-26.53-14.26-5.07-10.02-4.48-20.09,3.08-27.72,21.01-21.2,42.29-42.21,64.65-61.96,9.92-8.76,22.86-7.43,32.77,1.66,9.75,8.95,13.41,21.45,4.66,32.18-20.55,25.2-45,46.72-69.78,67.7-2.68,2.27-7.47,2.06-8.85,2.4Z"/><path class="cls-1" d="m307.13,283.17c.16,20.08-23.21,34.41-39.39,22.15-24.27-18.4-47.03-38.98-69.04-60.09-10.42-9.99-8.59-23.35,1.15-34,9.15-10,21.35-13.01,32.1-4.34,23.75,19.15,46.53,39.51,69.23,59.92,4.22,3.79,6.56,9.96,5.96,16.36Z"/><path class="cls-1" d="m792.12,771.4c-.41,9.95-4.51,17.44-13.54,22.61-10.06,5.75-19.76,4.62-27.84-2.11-21.92-18.27-43.59-36.88-64.44-56.34-12.07-11.27-11.71-25.33-.61-37.16,10.57-11.26,23.37-11.75,35.4-1.41,21.14,18.18,42.01,36.67,63.05,54.97,5.96,5.18,8.38,11.7,7.98,19.44Z"/><path class="cls-1" d="m879.78,473.86c16.4.52,26.25,9.63,26.71,25.74.47,16.54-9.85,25.98-25.92,26.33-26.47.57-53,.26-79.45-.95-18.83-.86-30.14-12.84-29.3-28.29.85-15.57,12.58-24.33,32.47-24.28,11.92.03,62.25,1.03,75.48,1.45Z"/><path class="cls-1" d="m466.05,119.12c.06-15.82,8.53-25.21,23.69-26.62,16.53-1.53,27.67,8.25,28.58,23.86,1.67,28.42,1.66,57.08.04,85.51-.87,15.18-10.69,25.87-27.85,24.7-16.87-1.15-24.37-11.54-24.48-27.84-.09-13.27-.02-66.33.03-79.6Z"/><path class="cls-1" d="m187.25,473.84c16.8.51,26.14,10.69,26.13,26.37-.02,15.87-9.79,25.84-26.51,25.9-25.83.09-51.68.03-77.48-1.07-20.17-.85-31.52-12.53-30.32-28.97,1.14-15.66,12.24-23.68,32.7-23.66,11.92.01,62.26,1.03,75.49,1.43Z"/><path class="cls-1" d="m470.95,798.09c.9-15.43,9.66-24.32,25.44-24.7,15.99-.39,25.62,8.84,26.25,23.79,1.23,29.13,1.25,58.38.01,87.51-.6,14.19-10.6,22.63-25.27,22.71-15.55.09-25.2-8.31-26.35-23.79-1.08-14.51-.89-71.65-.08-85.53Z"/></svg>